<svg width="18" height="18" viewBox="0 0 18 18" fill="none" xmlns="http://www.w3.org/2000/svg">
<path fill-rule="evenodd" clip-rule="evenodd" d="M15.099 12.348C15.6 12.436 16.393 12.473 17.023 12.488C17.568 12.501 18 12.945 18 13.49V17C18 17.438 17.672 18 17 18C12.461 18 8.126 16.16 4.966 13.034C1.84 9.874 0 5.539 0 1C0 0.328 0.562 0 1 0H4.51C5.055 0 5.499 0.432 5.512 0.977C5.528 1.607 5.564 2.4 5.653 2.901C5.748 3.443 5.935 4.095 6.077 4.553C6.189 4.913 6.09 5.305 5.824 5.572L3.62 7.79C4.427 9.322 5.367 10.549 6.412 11.588C7.451 12.633 8.678 13.573 10.21 14.38L12.427 12.176C12.694 11.91 13.086 11.811 13.446 11.923C13.905 12.066 14.557 12.252 15.099 12.348Z" fill="#310A90"/>
</svg>
