<svg width="24" height="24" viewBox="0 0 24 24" fill="none" xmlns="http://www.w3.org/2000/svg">
<path fill-rule="evenodd" clip-rule="evenodd" d="M18.735 5.27502C19.655 5.09302 21.22 4.46202 22 3.99902C21.699 4.94302 20.514 6.13502 19.68 6.63502C20.497 6.53702 21.275 6.32102 22 5.99902C21.458 6.80902 20.773 7.52002 19.983 8.09002C19.986 8.15602 19.989 8.28302 19.992 8.41902C19.992 8.43252 19.994 8.44577 19.996 8.45902C19.998 8.47227 20 8.48552 20 8.49902C20 8.50802 19.9988 8.51677 19.9975 8.52552C19.9963 8.53427 19.995 8.54302 19.995 8.55202C19.998 8.73302 20 8.91302 20 8.99902C20 14.337 15.777 20 8.347 20C6.065 20 3.788 19.145 2 17.999H2.964C5.794 17.999 6.753 17.597 8.135 16.513C6.368 16.481 4.514 15.579 4 13.974C4.246 14.02 5.166 14.139 5.426 14.139C5.795 14.139 6.551 14.117 6.926 13.896C5.078 13.525 3 12.192 3 10.234V10.183C3.563 10.647 4.178 10.8 4.759 10.8C5.119 10.8 5.465 10.742 5.779 10.661C4.074 9.80802 2.979 8.43202 2.979 7.03102C2.979 6.28902 3.066 5.49902 3.265 4.99902C5.095 7.24302 7.647 8.99902 11 8.99902C10.9924 8.91039 10.9953 8.76758 10.9978 8.64463C10.998 8.6378 10.9981 8.63104 10.9983 8.62435C10.9992 8.5775 11 8.53428 11 8.49902C11 6.01402 13.015 3.99902 15.5 3.99902C16.733 3.99902 17.847 4.49602 18.66 5.29802C18.6724 5.29469 18.6839 5.2909 18.6954 5.28709C18.7081 5.2829 18.7209 5.27869 18.735 5.27502Z" fill="#310A90"/>
</svg>
